<svg width="126" height="38" viewBox="0 0 126 38" fill="none" xmlns="http://www.w3.org/2000/svg">
<g clip-path="url(#clip0_1311_3773)">
<path d="M44.5682 0.321609C44.5501 0.220151 44.4933 0.130115 44.4101 0.071189C44.327 0.0122627 44.2243 -0.0107577 44.1246 0.00715188L9.16857 6.651C7.05412 7.05196 5.0973 8.06257 3.53078 9.56263C1.96426 11.0627 0.853968 12.9891 0.331908 15.1128C-0.190152 17.2365 -0.102016 19.4681 0.585855 21.5423C1.27373 23.6164 2.53239 25.4459 4.21216 26.8131C5.89193 28.1804 7.92214 29.0278 10.0614 29.2547C12.2006 29.4816 14.3589 29.0785 16.2795 28.0931C18.2002 27.1078 19.8024 25.5818 20.8957 23.6965C21.9889 21.8113 22.5273 19.6461 22.4466 17.4585C22.4441 17.4072 22.4598 17.3566 22.491 17.3162C22.5221 17.2758 22.5666 17.2482 22.6162 17.2386L34.7212 14.9381C36.0381 14.6877 37.2037 13.9157 37.9619 12.7916C38.7202 11.6674 39.0092 10.2829 38.7655 8.94206C38.7571 8.89178 38.7389 8.8437 38.7121 8.8006C38.6853 8.7575 38.6504 8.72024 38.6093 8.69099C38.5683 8.66174 38.5219 8.64108 38.473 8.6302C38.424 8.61932 38.3734 8.61843 38.3241 8.62761L19.9309 12.1221C19.4316 12.2205 18.9565 12.4191 18.5334 12.7063C18.1103 12.9935 17.7476 13.3635 17.4665 13.7949C17.1854 14.2263 16.9915 14.7103 16.8962 15.2187C16.8008 15.7272 16.8058 16.2498 16.911 16.7563C16.911 16.7705 16.911 16.787 16.911 16.8012C17.0016 17.296 17.0305 17.8004 16.997 18.3026C16.8624 19.7324 16.2208 21.0634 15.1923 22.0469C14.1637 23.0304 12.8185 23.599 11.4081 23.6465C9.99762 23.694 8.61843 23.2171 7.52825 22.305C6.43807 21.3929 5.7115 20.108 5.48433 18.6903C5.0569 15.5457 7.25676 12.6447 10.3231 12.0701L14.7367 11.2308L40.5216 6.32945C41.8386 6.0791 43.0041 5.30711 43.7624 4.18293C44.5206 3.05875 44.8096 1.67427 44.5659 0.333428L44.5682 0.321609Z" fill="#004CC6"/>
<path d="M71.8264 24.4333C67.9215 24.4333 65.0898 27.3178 65.0898 31.2899C65.0898 35.1769 67.9355 37.9976 71.8566 37.9976C75.6849 37.9976 78.5723 35.08 78.5723 31.2143C78.5723 27.3485 75.6686 24.4333 71.8264 24.4333ZM71.852 34.5622C70.0633 34.5622 68.716 33.1129 68.716 31.1906C68.716 29.3299 70.0935 27.8805 71.852 27.8805C73.6105 27.8805 74.9369 29.3488 74.9369 31.2261C74.9369 33.1034 73.6105 34.5622 71.852 34.5622Z" fill="#15257A"/>
<path d="M88.6023 25.0457C88.6017 24.999 88.5831 24.9546 88.5505 24.9218C88.5178 24.8891 88.4739 24.8707 88.4281 24.8707H84.6532V24.2749C84.6532 23.4686 85.1179 22.9863 85.8937 22.9863H87.3456C88.0141 22.9851 88.6548 22.7141 89.1272 22.2327C89.5997 21.7514 89.8654 21.099 89.866 20.4186C89.866 20.3722 89.8479 20.3277 89.8156 20.2949C89.7834 20.2621 89.7397 20.2437 89.6941 20.2437H85.7636C84.0098 20.2437 83.0713 20.4943 82.1747 21.1894C81.4406 21.7899 81.0132 22.8444 81.0132 24.1094V24.8589H79.7982C79.7524 24.8589 79.7085 24.8772 79.6759 24.91C79.6433 24.9427 79.6246 24.9872 79.624 25.0338V27.4384C79.624 27.4854 79.6424 27.5305 79.6751 27.5638C79.7077 27.597 79.752 27.6157 79.7982 27.6157H81.0132V37.3876C81.0138 37.4345 81.0323 37.4792 81.0649 37.5123C81.0974 37.5455 81.1414 37.5643 81.1874 37.565H84.4698C84.516 37.565 84.5603 37.5463 84.5929 37.513C84.6256 37.4798 84.644 37.4347 84.644 37.3876V27.6134H86.0703C86.7387 27.6127 87.3797 27.3423 87.8526 26.8614C88.3255 26.3806 88.5918 25.7284 88.593 25.048L88.6023 25.0457Z" fill="#15257A"/>
<path d="M117.02 32.8386H113.67C113.642 32.8391 113.614 32.8467 113.589 32.8607C113.564 32.8747 113.543 32.8947 113.528 32.919C112.773 34.0704 111.944 34.574 110.759 34.574C108.971 34.574 107.674 33.1885 107.674 31.2805C107.674 29.3109 108.971 27.8829 110.759 27.8829C111.33 27.8691 111.893 28.0216 112.381 28.3223C112.87 28.6231 113.264 29.0596 113.517 29.5805C113.53 29.6102 113.551 29.6356 113.578 29.6535C113.604 29.6715 113.636 29.6815 113.668 29.6822H117.003C117.03 29.6822 117.057 29.6757 117.081 29.6634C117.105 29.6511 117.126 29.6332 117.143 29.6112C117.16 29.5904 117.171 29.5658 117.177 29.5395C117.183 29.5132 117.182 29.4859 117.175 29.4599C116.418 26.4595 113.788 24.4451 110.631 24.4451C109.761 24.4391 108.899 24.6097 108.094 24.9471C107.29 25.2844 106.559 25.7817 105.946 26.4098C105.332 27.038 104.848 27.7843 104.522 28.6052C104.195 29.4261 104.032 30.305 104.044 31.1906C104.057 32.926 104.715 34.592 105.884 35.8547C107.054 37.1175 108.649 37.8837 110.35 38C111.871 38.0957 113.378 37.6599 114.623 36.7647C115.867 35.8694 116.773 34.5685 117.192 33.0774C117.198 33.0511 117.199 33.0236 117.194 32.997C117.189 32.9704 117.177 32.9453 117.161 32.9237C117.146 32.8991 117.125 32.8786 117.1 32.8638C117.076 32.849 117.048 32.8404 117.02 32.8386Z" fill="#15257A"/>
<path d="M102.136 24.8707H99.0813C99.0355 24.8707 98.9915 24.8891 98.9589 24.9218C98.9263 24.9545 98.9077 24.999 98.907 25.0457V25.8023L98.7816 25.7077C97.7272 24.8975 96.4463 24.4511 95.1253 24.4333C91.2204 24.4333 88.3887 27.3178 88.3887 31.2899C88.3887 35.1769 91.2343 37.9976 95.1555 37.9976C96.468 37.9783 97.7401 37.5326 98.7863 36.7256L98.9117 36.6334V37.3829C98.9123 37.4297 98.9308 37.4745 98.9634 37.5076C98.9959 37.5407 99.0399 37.5596 99.0859 37.5602H102.141C102.187 37.5602 102.231 37.5415 102.264 37.5083C102.296 37.475 102.315 37.4299 102.315 37.3829V25.0457C102.315 25.0221 102.31 24.9987 102.301 24.977C102.292 24.9553 102.279 24.9357 102.262 24.9194C102.245 24.903 102.226 24.8903 102.204 24.8819C102.182 24.8736 102.159 24.8697 102.136 24.8707ZM95.1508 34.5646C93.3645 34.5646 92.0148 33.1152 92.0148 31.193C92.0148 29.3323 93.3923 27.8829 95.1508 27.8829C96.9093 27.8829 98.2357 29.3512 98.2357 31.2285C98.2357 33.1058 96.914 34.5622 95.1508 34.5622V34.5646Z" fill="#15257A"/>
<path d="M55.1452 24.8707H51.8628C51.817 24.8707 51.773 24.8891 51.7404 24.9218C51.7078 24.9546 51.6892 24.9991 51.6886 25.0457V31.9614C51.6886 33.6165 50.8779 34.5622 49.4632 34.5622C47.9904 34.5622 47.3725 33.7844 47.3725 31.9614V25.0457C47.3719 24.9991 47.3533 24.9546 47.3207 24.9218C47.2881 24.8891 47.2441 24.8707 47.1983 24.8707H43.9066C43.8608 24.8707 43.8169 24.8891 43.7843 24.9218C43.7517 24.9546 43.733 24.9991 43.7324 25.0457V32.4769C43.7324 34.5173 43.9647 35.3614 44.8498 36.4088C45.7627 37.4633 46.9822 38 48.4782 38C50.1043 38 51.152 37.442 51.7304 36.2457L51.8791 35.9407V37.3853C51.8797 37.4321 51.8982 37.4769 51.9308 37.51C51.9633 37.5431 52.0073 37.562 52.0533 37.5626H55.1335C55.1798 37.5626 55.2241 37.5439 55.2567 37.5107C55.2894 37.4774 55.3078 37.4323 55.3078 37.3853V25.0457C55.3078 25.0009 55.291 24.9577 55.2607 24.9252C55.2305 24.8926 55.1891 24.8731 55.1452 24.8707Z" fill="#15257A"/>
<path d="M41.2113 24.8707H38.1566C38.1338 24.8704 38.1112 24.8747 38.0901 24.8833C38.069 24.892 38.0498 24.9048 38.0336 24.9211C38.0174 24.9374 38.0045 24.9568 37.9957 24.9782C37.9869 24.9995 37.9824 25.0225 37.9824 25.0457V25.8023L37.857 25.7077C36.8005 24.8964 35.517 24.4499 34.1936 24.4333C30.2864 24.4333 27.457 27.3178 27.457 31.2899C27.457 35.1769 30.3027 37.9976 34.2238 37.9976C35.5364 37.9783 36.8085 37.5326 37.8546 36.7256L37.9801 36.6334V37.3829C37.9801 37.4299 37.9984 37.475 38.0311 37.5083C38.0638 37.5415 38.1081 37.5602 38.1543 37.5602H41.209C41.255 37.5596 41.299 37.5407 41.3315 37.5076C41.3641 37.4745 41.3826 37.4297 41.3832 37.3829V25.0457C41.3826 24.9995 41.3643 24.9553 41.3322 24.9226C41.3001 24.8899 41.2567 24.8713 41.2113 24.8707ZM34.2262 34.5646C32.4375 34.5646 31.0902 33.1152 31.0902 31.193C31.0902 29.3323 32.4677 27.8829 34.2262 27.8829C35.9846 27.8829 37.311 29.3299 37.311 31.2214C37.311 33.1129 35.9846 34.5622 34.2262 34.5622V34.5646Z" fill="#15257A"/>
<path d="M65.1427 25.048C65.1421 25.0014 65.1235 24.9569 65.0909 24.9242C65.0583 24.8914 65.0143 24.8731 64.9685 24.8731H62.2251V20.7544C62.2251 20.7073 62.2067 20.6622 62.1741 20.629C62.1414 20.5957 62.0971 20.577 62.0509 20.577H60.4596C59.9668 20.577 59.4941 20.7763 59.1456 21.131C58.7971 21.4858 58.6013 21.9669 58.6013 22.4685V24.8636H56.9311C56.8853 24.8636 56.8413 24.882 56.8087 24.9147C56.7761 24.9475 56.7574 24.992 56.7568 25.0386V27.4384C56.7568 27.4854 56.7752 27.5305 56.8079 27.5638C56.8405 27.5971 56.8849 27.6157 56.9311 27.6157H58.585V37.3876C58.5847 37.411 58.589 37.4342 58.5976 37.4559C58.6063 37.4775 58.6191 37.4972 58.6353 37.5137C58.6516 37.5303 58.6709 37.5433 58.6922 37.5521C58.7135 37.5609 58.7363 37.5653 58.7592 37.565H62.0416C62.0878 37.565 62.1321 37.5463 62.1648 37.513C62.1975 37.4798 62.2158 37.4347 62.2158 37.3876V27.6134H62.6432C63.3077 27.6065 63.9427 27.3334 64.4106 26.8532C64.8785 26.3729 65.1415 25.7244 65.1427 25.048Z" fill="#15257A"/>
<path d="M125.826 24.8707H123.083V20.7544C123.083 20.7073 123.064 20.6622 123.031 20.629C122.999 20.5957 122.955 20.577 122.908 20.577H121.317C120.824 20.577 120.352 20.7763 120.003 21.131C119.654 21.4858 119.459 21.9669 119.459 22.4685V24.8636H117.788C117.743 24.8636 117.699 24.882 117.666 24.9147C117.633 24.9475 117.615 24.992 117.614 25.0386V27.4384C117.614 27.4854 117.633 27.5305 117.665 27.5638C117.698 27.5971 117.742 27.6157 117.788 27.6157H119.447V37.3876C119.447 37.4108 119.451 37.4338 119.46 37.4553C119.468 37.4768 119.481 37.4964 119.497 37.5129C119.513 37.5294 119.532 37.5425 119.553 37.5514C119.574 37.5604 119.596 37.565 119.619 37.565H122.904C122.95 37.565 122.994 37.5463 123.027 37.513C123.06 37.4798 123.078 37.4347 123.078 37.3876V27.6134H123.505C124.168 27.6041 124.8 27.3301 125.265 26.8506C125.731 26.3711 125.992 25.7245 125.993 25.0504C125.994 25.0274 125.99 25.0045 125.982 24.9831C125.974 24.9616 125.962 24.942 125.946 24.9253C125.931 24.9086 125.912 24.8952 125.891 24.8858C125.871 24.8765 125.849 24.8713 125.826 24.8707Z" fill="#15257A"/>
</g>
<defs>
<clipPath id="clip0_1311_3773">
<rect width="126" height="38" fill="white"/>
</clipPath>
</defs>
</svg>
